<?xml version="1.0" standalone="no"?><!DOCTYPE svg PUBLIC "-//W3C//DTD SVG 1.1//EN" "http://www.w3.org/Graphics/SVG/1.1/DTD/svg11.dtd"><svg t="1539426743485" class="icon" style="" viewBox="0 0 1024 1024" version="1.1" xmlns="http://www.w3.org/2000/svg" p-id="1436" xmlns:xlink="http://www.w3.org/1999/xlink" width="200" height="200"><defs><style type="text/css"></style></defs><path d="M349.206756 991.213985c22.016948-24.186311 43.442252-48.172563 65.314133-71.763437 82.354252-89.010252 166.388622-176.4352 246.921481-266.971022 70.436978-78.90963 74.377481-171.266844 16.697837-259.973689-1.329304-2.21677-2.020504-4.82797-3.642785-8.671763 90.7776-16.549926 180.231585-33.442133 270.022163-48.85997 40.881304-7.046637 41.770667-5.814044 53.244208 34.674726 49.307496 174.662163 13.742459 332.0832-101.026134 470.846577-88.904059 107.52-206.189037 163.721481-344.103822 178.303052-63.140978 6.650311-160.623881-6.356385-203.427081-27.584474z" fill="#ffffff" p-id="1437"></path><path d="M4.265719 510.766459c0.935822-142.55123 53.888-263.028622 154.466607-363.367348 15.612207-15.515496 15.911822-15.416889 22.755555 6.556445 43.100919 138.899911 84.523615 278.347852 129.792 416.559407 23.349096 71.081719 72.013748 120.823467 146.340978 140.726044 17.18803 4.528356 17.583407 9.358222 9.061452 23.153778a19531.897363 19531.897363 0 0 0-139.296237 229.874726c-8.423348 14.241185-16.009481 15.817007-30.440296 8.671763C135.972978 892.849304 39.973926 764.63597 8.794074 587.510519c-4.429748-25.515615-3.546074-50.983822-4.528355-76.74406z" fill="#ffffff" p-id="1438"></path><path d="M727.497956 306.400711c-71.518815 0-142.944711-0.146015-214.462578 0.049304-63.5392 0.195319-116.687644 24.135111-158.357808 72.211911-8.66797 9.997274-13.691259 12.853096-21.474607-1.084682-45.959585-83.094756-92.407467-165.998933-139.200474-248.696414-5.911704-10.392652 1.328356-12.81043 6.895881-17.291378C261.535289 63.172267 330.343348 30.908681 406.053926 16.080593c144.21997-28.320237 278.398104-1.821393 399.320178 83.590637 69.00717 48.713956 122.107259 111.369481 159.640652 187.075318 9.605689 19.555556 9.55923 19.603911-13.001956 19.654163H727.497956z" fill="#ffffff" p-id="1439"></path><path d="M336.845748 515.2512c-2.561896-91.814874 73.980207-174.173867 164.418371-177.030637 97.722785-3.007526 177.472474 71.81843 183.478044 164.910459 6.405689 99.254993-79.794252 182.689185-171.410963 184.121837-94.721896 1.527467-173.878044-74.621156-176.485452-172.001659z" fill="#ffffff" p-id="1440"></path></svg>